# xmcd CD database file
#
# Track frame offsets:
#	150
#	14264
#	34164
#	45962
#	68583
#	83618
#	107854
#	124876
#	145033
#	156214
#	170605
#	197621
#	210441
#	228159
#	258241
#
# Disc length: 3649 seconds
#
# Revision: 0
# Processed by: cddbd v1.5.2PL0 Copyright (c) Steve Scherf et al.
# Submitted via: CDex 1.51
#
DISCID=ba0e3f0f
DTITLE=Blues Flowers - Smacznego!
DYEAR=2008
DGENRE=Blues
TTITLE0=Syrenka blues
TTITLE1=Flaczki zakrzewskie blues
TTITLE2=Blues o Rawie
TTITLE3=Heja, hej, blues bardzo stary!
TTITLE4=Balladka slodka
TTITLE5=Od zachodu wietrzyk powiewuje
TTITLE6=Blues o Zenonie
TTITLE7=Blues denuncjatora
TTITLE8=Akordeonisty obertas siarczysty
TTITLE9=Zolte buciki
TTITLE10=W pamietniku cie zapisze
TTITLE11=Limerykow o Cielaku ciag dalszy
TTITLE12=A co tam slychac w Wyrzysku?
TTITLE13=Kaszanka blues
TTITLE14=Balladka slodka (wersja klasy B)
EXTD=YEAR: 2008
EXTT0=
EXTT1=
EXTT2=
EXTT3=
EXTT4=
EXTT5=
EXTT6=
EXTT7=
EXTT8=
EXTT9=
EXTT10=
EXTT11=
EXTT12=
EXTT13=
EXTT14=
PLAYORDER=
